<svg viewBox="0 0 144 144" xmlns="http://www.w3.org/2000/svg">
  <g stroke='blue' stroke-width='6' fill='none'>
    <path fill='blue' stroke='none' d="M27.09,131.11Q50.75,113.74,55.17,109a84,84,0,0,0,7.33-8.86,26.15,26.15,0,0,0,3.82-7.2,41.46,41.46,0,0,0,1.22-9.13L67.38,63.1l0.15-33q-0.61-17.2-.46-19.75A51.33,51.33,0,0,1,67.38,5q0.31-2.9,2-3.95A9.26,9.26,0,0,1,74.25,0q3.66,0.18,4.43,2.55a19.77,19.77,0,0,1,.76,6q0,3.6.31,11.85L79.59,50.55,80.2,68.19q0,14.48.76,18.43a27.93,27.93,0,0,0,2.75,7.72,77.31,77.31,0,0,0,5.65,8.86,79,79,0,0,0,8.85,10.18q5.19,5.09,21.52,17.64a42.11,42.11,0,0,0,5-4.56q2.59-2.72,4.43-10.18t2.14-20.36V49.85q0-7-.15-10.44l-1.07-15.27q-0.15-3-.76-7t1.22-5.27a9.39,9.39,0,0,1,4.73-1.4A6.59,6.59,0,0,1,140,11.76a5.19,5.19,0,0,1,1.53,3.6l0.61,4.56,0.46,11.23,0.92,11.06q0.46,7.37.46,26.85V95.83q-0.31,7.46-1.53,20.71t-15.72,20.71q-14.5,7.46-60,6.67a296.22,296.22,0,0,1-30.52-1.58q-10.53-1.32-16-4.56a45,45,0,0,1-10.68-9.13A27.45,27.45,0,0,1,3,115.05Q1.6,107.33.69,96.62A213.1,213.1,0,0,1,.08,73.37q0.31-12.55,0-23.08,0-10,.31-14.3T1.14,26.5q0.46-5.18.76-8.16T4,14.3a11.49,11.49,0,0,1,5.34-1.14q3.51-.09,4.27,2.19a15.12,15.12,0,0,1,.76,4.83L14.12,23Q13,31.51,13.2,53.36V70.65q0,14.3.92,25t2.29,18.52Q17.78,122,21,124.88l6.1,6.23h0Zm81.81,3Q92.11,122,86.16,116.1a89.6,89.6,0,0,1-11-13.25q-4.88,5.88-10.23,11.23T38.69,134.45a89.31,89.31,0,0,0,9.16,1.49q4.73,0.53,24.42.88A186.75,186.75,0,0,0,108.9,134.1Z"/>
  </g>
  <style>
    @keyframes fill {
      0%, 100% { fill: blue; }
      16% { fill: purple; }
      33% { fill: hsl(0, 100%, 60%); }
      50% { fill: orange; }
      67% { fill: gold; }
      83% { fill: hsl(120, 100%, 25%); }
    }
    @keyframes stroke {
      0%, 100% { stroke: blue; }
      16% { stroke: purple; }
      33% { stroke: hsl(0, 100%, 60%); }
      50% { stroke: orange; }
      67% { stroke: gold; }
      83% { stroke: hsl(120, 100%, 25%); }
    }
    [fill=blue], [stroke=blue] { animation: n 5s infinite linear; }
    [stroke=blue] { animation-name: stroke; }
    [fill=blue] { animation-name: fill; }
  </style>
</svg>


