<svg id="Layer_1" data-name="Layer 1" xmlns="http://www.w3.org/2000/svg" viewBox="0 0 715 144.15"><defs><style>.cls-1{fill:#c44129;}.cls-2{fill:#183a5a;}</style></defs><title>yama-logo</title><path class="cls-1" d="M44.09,146.17q23.66-17.38,28.08-22.12a84,84,0,0,0,7.33-8.86,26.15,26.15,0,0,0,3.82-7.2,41.46,41.46,0,0,0,1.22-9.13L84.38,78.16l0.15-33Q83.93,28,84.08,25.41a51.33,51.33,0,0,1,.31-5.35q0.31-2.9,2-3.95a9.26,9.26,0,0,1,4.88-1.05q3.66,0.18,4.43,2.55a19.77,19.77,0,0,1,.76,6q0,3.6.31,11.85L96.59,65.61,97.2,83.25q0,14.48.76,18.43a27.93,27.93,0,0,0,2.75,7.72,77.31,77.31,0,0,0,5.65,8.86,79,79,0,0,0,8.85,10.18q5.19,5.09,21.52,17.64a42.11,42.11,0,0,0,5-4.56q2.59-2.72,4.43-10.18T148.33,111V64.9q0-7-.15-10.44l-1.07-15.27q-0.15-3-.76-7t1.22-5.27a9.39,9.39,0,0,1,4.73-1.4A6.59,6.59,0,0,1,157,26.82a5.19,5.19,0,0,1,1.53,3.6L159.17,35l0.46,11.23,0.92,11.06q0.46,7.37.46,26.85v26.77q-0.31,7.46-1.53,20.71t-15.72,20.71q-14.5,7.46-60,6.67a296.22,296.22,0,0,1-30.52-1.58q-10.53-1.32-16-4.56a45,45,0,0,1-10.68-9.13A27.45,27.45,0,0,1,20,130.11q-1.37-7.72-2.29-18.43a213.1,213.1,0,0,1-.61-23.26q0.31-12.55,0-23.08,0-10,.31-14.3t0.76-9.48q0.46-5.18.76-8.16t2.14-4a11.49,11.49,0,0,1,5.34-1.14q3.51-.09,4.27,2.19a15.12,15.12,0,0,1,.76,4.83L31.12,38Q30,46.56,30.2,68.41V85.7q0,14.3.92,25t2.29,18.52Q34.78,137,38,139.94l6.1,6.23h0Zm81.81,3q-16.79-12.11-22.74-18a89.6,89.6,0,0,1-11-13.25q-4.88,5.88-10.23,11.23T55.69,149.5A89.31,89.31,0,0,0,64.85,151q4.73,0.53,24.42.88A186.75,186.75,0,0,0,125.9,149.15Z" transform="translate(-17 -15.06)"/><path class="cls-2" d="M242.95,105.67l-55.58-77h7.83l51.11,71.44L297,28.64h7.65l-55.4,77v53.53h-6.34V105.67Z" transform="translate(-17 -15.06)"/><path class="cls-2" d="M358.4,27.71h6l61.93,131.5h-6.9l-17.72-38.05H320.91L303,159.21h-6.53Zm40.48,87.67L361.2,35.17l-37.49,80.21h75.17Z" transform="translate(-17 -15.06)"/><path class="cls-2" d="M453.15,28.64h6l55.21,79.46,55-79.46h6V159.21H569V39.64L514.33,118H514L459.31,39.64V159.21h-6.15V28.64Z" transform="translate(-17 -15.06)"/><path class="cls-2" d="M664.1,27.71h6L732,159.21h-6.9l-17.72-38.05H626.61l-17.91,38.05h-6.53Zm40.48,87.67L666.9,35.17l-37.49,80.21h75.17Z" transform="translate(-17 -15.06)"/></svg>